<?xml version="1.0" encoding="UTF-8"?>
<svg id="Layer_1" data-name="Layer 1" xmlns="http://www.w3.org/2000/svg" viewBox="0 0 117.4023 117.4023">
  <path id="logoMark" d="M117.3891,36.7413c-.0109-.3538-.0258-.707-.0415-1.0596-.267-5.9907-1.9377-11.6004-4.7033-16.5166C106.1948,7.7012,93.8624,0,79.8669,0H37.5351C27.1021,0,17.5955,4.2828,10.7573,11.2098c-2.5899,2.6233-4.7902,5.63-6.5188,8.9238-.049,.0934-.0907,.1908-.1389,.2845C1.4907,25.4931,0,31.2396,0,37.3565v42.6911c0,.6305,.0256,1.2545,.0611,1.8753,.0235,.411,.0487,.821,.0826,1.2289,.4527,5.453,2.0702,10.5636,4.6149,15.0866,6.4494,11.4627,18.7814,19.1639,32.7766,19.1639h42.3318c13.3896,0,25.2578-7.0488,31.9083-17.6964,.4948-.792,.9575-1.6061,1.3931-2.4365,.0489-.0934,.0906-.1908,.1388-.2845,2.6073-5.0751,4.0953-10.8219,4.0953-16.9372V37.3565c0-.2061-.0069-.4107-.0132-.6152ZM14.2993,20.1336v-5.9008H103.1031v10.8372L14.2993,71.3353V20.1336ZM103.1031,97.2694v5.9027H14.2993v-10.7379L103.1031,46.068v51.2014Z" style="fill: #63f;"/>
</svg>